<svg width="456.0001" height="456" xmlns="http://www.w3.org/2000/svg">
 <g>
  <title>background</title>
  <rect x="-1" y="-1" width="458.0001" height="458" id="canvas_background" fill="none"/>
 </g>

 <g>
  <title>Layer 1</title>
  <path d="m48,288l16,0l0,-288l-16,0c-26.50781,0 -48,21.49219 -48,48l0,288c0,-26.50781 21.49219,-48 48,-48zm0,0" fill="#8b5e3c" id="svg_1"/>
  <path d="m64,0l256,0l0,288l-256,0l0,-288zm0,0" fill="#c49a6c" id="svg_2"/>
  <path d="m64,288l-16,0c-26.50781,0 -48,21.49219 -48,48c0.03906,26.49219 21.50781,47.96094 48,48l272,0l0,-96l-256,0zm0,0" fill="#787680" id="svg_3"/>
  <path d="m320,288l0,16l-272,0c-23.41797,-0.00781 -43.41016,16.90625 -47.28125,40c-0.48438,-2.64062 -0.72266,-5.31641 -0.71875,-8c0,-26.50781 21.49219,-48 48,-48l272,0zm0,0" fill="#57565c" id="svg_4"/>
  <path d="m320,0l0,288l-217.60156,0c82.40234,-58.07812 162.88281,-148.23828 207.68359,-288l9.91797,0zm0,0" fill="#a97c50" id="svg_5"/>
  <path d="m100.00005,63l176,0l0,80l-176,0l0,-80zm0,0" fill="#d1d3d4" id="svg_6"/>
  <path d="m408,48l48,0l0,264l-48,0l0,-264zm0,0" fill="#ffd422" id="svg_7"/>
  <path d="m360,48l96,0l-48,-48l-48,48zm0,0" fill="#787680" id="svg_8"/>
  <path d="m360,312l0,24c0,26.50781 21.49219,48 48,48c26.51172,0 48,-21.49219 48,-48l0,-24l-96,0zm0,0" fill="#e6e7e8" id="svg_9"/>
  <path d="m360,48l48,0l0,264l-48,0l0,-264zm0,0" fill="#0b7" id="svg_10"/>
  <path d="m48,328l272,0l0,16l-272,0l0,-16zm0,0" fill="#3e3d42" id="svg_11"/>
  <path d="m56,0l16,0l0,288l-16,0l0,-288zm0,0" fill="#754c29" id="svg_12"/>
  <text fill="#000000" stroke-width="0" stroke-opacity="null" fill-opacity="null" x="135.50006" y="89.69034" id="svg_14" font-size="24" font-family="Helvetica, Arial, sans-serif" text-anchor="start" xml:space="preserve" transform="matrix(1.73328303657928,0,0,2.383314261931133,-130.65646538814832,-90.68670393007741) " stroke="null">点检手册</text>
 </g>
</svg>